<?xml version="1.0" standalone="no"?>
<!DOCTYPE svg PUBLIC "-//W3C//DTD SVG 20010904//EN"
 "http://www.w3.org/TR/2001/REC-SVG-20010904/DTD/svg10.dtd">
<svg version="1.0" xmlns="http://www.w3.org/2000/svg"
 width="16.000000pt" height="16.000000pt" viewBox="0 0 16.000000 16.000000"
 preserveAspectRatio="xMidYMid meet">
<metadata>
Created by potrace 1.11, written by Peter Selinger 2001-2013
</metadata>
<g transform="translate(0.000000,16.000000) scale(0.006154,-0.006154)"
fill="#000000" stroke="none">
<path d="M1466 1818 c-18 -40 -129 -278 -246 -528 -117 -250 -226 -484 -242
-520 -17 -36 -32 -69 -35 -73 -3 -4 32 -7 76 -5 l81 3 64 135 c101 215 132
282 238 510 55 118 118 253 140 300 22 47 56 119 75 160 19 41 37 78 40 83 2
4 -32 7 -77 7 l-81 0 -33 -72z"/>
<path d="M730 1646 c-30 -13 -127 -51 -215 -85 -88 -35 -171 -68 -185 -73 -14
-6 -83 -34 -155 -62 l-130 -51 0 -85 0 -85 70 -28 c39 -16 203 -80 365 -144
162 -63 300 -117 306 -120 7 -3 11 25 11 85 l-1 89 -70 26 c-39 14 -161 58
-271 97 -188 67 -241 90 -203 90 9 0 58 16 109 34 52 19 153 56 224 81 72 26
148 53 171 62 l40 14 0 90 c0 49 -3 89 -6 88 -3 0 -30 -11 -60 -23z"/>
<path d="M1802 1581 c-1 -89 0 -90 27 -99 175 -61 518 -186 523 -191 4 -3
-113 -48 -260 -100 -147 -52 -272 -98 -279 -103 -8 -6 -12 -38 -11 -93 l2 -83
50 19 c28 10 198 76 377 146 l325 128 1 87 c0 49 -3 88 -7 88 -8 0 -512 196
-565 219 -11 5 -51 21 -90 36 -38 15 -75 29 -81 32 -7 2 -11 -26 -12 -86z"/>
</g>
</svg>
